<svg height="490pt" viewBox="-21 0 490 490.66667" width="490pt" xmlns="http://www.w3.org/2000/svg"><path d="m341.667969 373.332031v59.585938c0 2.824219-1.121094 5.546875-3.125 7.539062l-47.085938 47.085938c-2.003906 2.003906-4.714843 3.125-7.539062 3.125h-272.917969c-5.886719 0-10.667969-4.78125-10.667969-10.667969v-469.332031c0-5.890625 4.78125-10.667969 10.667969-10.667969h320c5.886719 0 10.667969 4.777344 10.667969 10.667969zm0 0" fill="#7ecffb"/><path d="m320.332031 420.640625-46.664062 48.691406h-241.335938c-5.886719 0-10.664062-4.777343-10.664062-10.664062v-426.667969c0-5.886719 4.777343-10.667969 10.664062-10.667969h277.335938c5.886719 0 10.664062 4.78125 10.664062 10.667969zm0 0" fill="#88d2fb"/><path d="m341.667969 405.332031h-74.667969c-5.886719 0-10.667969 4.78125-10.667969 10.667969v74.667969h32l53.335938-53.335938zm0 0" fill="#bae4fb"/><path d="m320.332031 426.667969h-32c-5.886719 0-10.664062 4.777343-10.664062 10.664062v32h16l26.664062-26.664062zm0 0" fill="#ceebfb"/><path d="m267 85.332031h-192c-5.886719 0-10.667969 4.78125-10.667969 10.667969v106.667969c0 5.886719 4.78125 10.664062 10.667969 10.664062h192c5.886719 0 10.667969-4.777343 10.667969-10.664062v-106.667969c0-5.886719-4.78125-10.667969-10.667969-10.667969zm0 0" fill="#bae4fb"/><path d="m245.667969 106.667969h-149.335938c-5.886719 0-10.664062 4.777343-10.664062 10.664062v64c0 5.890625 4.777343 10.667969 10.664062 10.667969h149.335938c5.886719 0 10.664062-4.777344 10.664062-10.667969v-64c0-5.886719-4.777343-10.664062-10.664062-10.664062zm0 0" fill="#ceebfb"/><g fill="#bae4fb"><path d="m53.667969 266.667969h106.664062v21.332031h-106.664062zm0 0"/><path d="m181.667969 266.667969h21.332031v21.332031h-21.332031zm0 0"/><path d="m53.667969 330.667969h64v21.332031h-64zm0 0"/><path d="m139 330.667969h106.667969v21.332031h-106.667969zm0 0"/><path d="m53.667969 394.667969h106.664062v21.332031h-106.664062zm0 0"/><path d="m181.667969 394.667969h42.664062v21.332031h-42.664062zm0 0"/></g><path d="m448.332031 234.667969c0 58.910156-47.753906 106.664062-106.664062 106.664062-58.910157 0-106.667969-47.753906-106.667969-106.664062 0-58.910157 47.757812-106.667969 106.667969-106.667969 58.910156 0 106.664062 47.757812 106.664062 106.667969zm0 0" fill="#fdd55b"/><path d="m427 234.667969c0 47.128906-38.203125 85.332031-85.332031 85.332031-47.128907 0-85.335938-38.203125-85.335938-85.332031 0-47.128907 38.207031-85.335938 85.335938-85.335938 47.128906 0 85.332031 38.207031 85.332031 85.335938zm0 0" fill="#fdde7f"/><path d="m376.792969 227.125-24.460938 24.460938v-70.253907h-21.332031v70.253907l-24.457031-24.460938-15.085938 15.082031 42.667969 42.667969c2.082031 2.078125 4.8125 3.125 7.542969 3.125s5.460937-1.046875 7.539062-3.125l42.667969-42.667969zm0 0" fill="#fff"/></svg>